<mxfile host="Electron" agent="Mozilla/5.0 (Windows NT 10.0; Win64; x64) AppleWebKit/537.36 (KHTML, like Gecko) draw.io/24.7.8 Chrome/128.0.6613.36 Electron/32.0.1 Safari/537.36" version="24.7.8">
  <diagram id="C5RBs43oDa-KdzZeNtuy" name="Page-1">
    <mxGraphModel dx="1260" dy="745" grid="1" gridSize="10" guides="1" tooltips="1" connect="1" arrows="1" fold="1" page="1" pageScale="1" pageWidth="1169" pageHeight="827" math="0" shadow="0">
      <root>
        <mxCell id="WIyWlLk6GJQsqaUBKTNV-0" />
        <mxCell id="WIyWlLk6GJQsqaUBKTNV-1" parent="WIyWlLk6GJQsqaUBKTNV-0" />
        <mxCell id="xQ2R-rVzxNfiQMsMRla2-7" style="edgeStyle=orthogonalEdgeStyle;rounded=0;orthogonalLoop=1;jettySize=auto;html=1;startArrow=ERmany;startFill=0;endArrow=block;endFill=1;" parent="WIyWlLk6GJQsqaUBKTNV-1" edge="1">
          <mxGeometry relative="1" as="geometry">
            <mxPoint x="580" y="200" as="sourcePoint" />
            <mxPoint x="360" y="126" as="targetPoint" />
            <Array as="points">
              <mxPoint x="440" y="200" />
              <mxPoint x="440" y="126" />
            </Array>
          </mxGeometry>
        </mxCell>
        <mxCell id="xQ2R-rVzxNfiQMsMRla2-9" value="1" style="edgeLabel;html=1;align=center;verticalAlign=middle;resizable=0;points=[];fontStyle=1" parent="xQ2R-rVzxNfiQMsMRla2-7" vertex="1" connectable="0">
          <mxGeometry x="0.8055" y="-2" relative="1" as="geometry">
            <mxPoint x="-8" y="-13" as="offset" />
          </mxGeometry>
        </mxCell>
        <mxCell id="NMxFnRKhPGM_rJbEdDU3-0" value="0...n" style="edgeLabel;html=1;align=center;verticalAlign=middle;resizable=0;points=[];fontStyle=1" parent="xQ2R-rVzxNfiQMsMRla2-7" vertex="1" connectable="0">
          <mxGeometry x="-0.8056" y="-3" relative="1" as="geometry">
            <mxPoint x="151" y="293" as="offset" />
          </mxGeometry>
        </mxCell>
        <mxCell id="NMxFnRKhPGM_rJbEdDU3-1" value="0...n" style="edgeLabel;html=1;align=center;verticalAlign=middle;resizable=0;points=[];fontStyle=1" parent="xQ2R-rVzxNfiQMsMRla2-7" vertex="1" connectable="0">
          <mxGeometry x="-0.8056" y="-3" relative="1" as="geometry">
            <mxPoint x="151" y="203" as="offset" />
          </mxGeometry>
        </mxCell>
        <mxCell id="NMxFnRKhPGM_rJbEdDU3-2" value="0...n" style="edgeLabel;html=1;align=center;verticalAlign=middle;resizable=0;points=[];fontStyle=1" parent="xQ2R-rVzxNfiQMsMRla2-7" vertex="1" connectable="0">
          <mxGeometry x="-0.8056" y="-3" relative="1" as="geometry">
            <mxPoint x="11" y="63" as="offset" />
          </mxGeometry>
        </mxCell>
        <mxCell id="NMxFnRKhPGM_rJbEdDU3-3" value="0...n" style="edgeLabel;html=1;align=center;verticalAlign=middle;resizable=0;points=[];fontStyle=1" parent="xQ2R-rVzxNfiQMsMRla2-7" vertex="1" connectable="0">
          <mxGeometry x="-0.8056" y="-3" relative="1" as="geometry">
            <mxPoint x="11" y="-17" as="offset" />
          </mxGeometry>
        </mxCell>
        <mxCell id="ga8ESJMkoXXcjlAqfhyh-19" value="0...n" style="edgeLabel;html=1;align=center;verticalAlign=middle;resizable=0;points=[];fontStyle=1" vertex="1" connectable="0" parent="xQ2R-rVzxNfiQMsMRla2-7">
          <mxGeometry x="-0.8056" y="-3" relative="1" as="geometry">
            <mxPoint x="-171" y="143" as="offset" />
          </mxGeometry>
        </mxCell>
        <mxCell id="xQ2R-rVzxNfiQMsMRla2-1" value="&lt;font style=&quot;font-size: 16px;&quot;&gt;Dish&lt;/font&gt;" style="swimlane;whiteSpace=wrap;html=1;" parent="WIyWlLk6GJQsqaUBKTNV-1" vertex="1">
          <mxGeometry x="580" y="70" width="210" height="309" as="geometry">
            <mxRectangle x="370" y="100" width="140" height="30" as="alternateBounds" />
          </mxGeometry>
        </mxCell>
        <mxCell id="xQ2R-rVzxNfiQMsMRla2-26" value="name: str" style="text;html=1;align=left;verticalAlign=middle;resizable=0;points=[];autosize=1;strokeColor=none;fillColor=none;fontStyle=1;fontSize=15;" parent="xQ2R-rVzxNfiQMsMRla2-1" vertex="1">
          <mxGeometry x="10" y="30.5" width="90" height="30" as="geometry" />
        </mxCell>
        <mxCell id="xQ2R-rVzxNfiQMsMRla2-25" value="description: text" style="text;html=1;align=left;verticalAlign=middle;resizable=0;points=[];autosize=1;strokeColor=none;fillColor=none;fontStyle=1;fontSize=15;" parent="xQ2R-rVzxNfiQMsMRla2-1" vertex="1">
          <mxGeometry x="10" y="60" width="130" height="30" as="geometry" />
        </mxCell>
        <mxCell id="xQ2R-rVzxNfiQMsMRla2-24" value="price: decimal" style="text;html=1;align=left;verticalAlign=middle;resizable=0;points=[];autosize=1;strokeColor=none;fillColor=none;fontStyle=1;fontSize=15;" parent="xQ2R-rVzxNfiQMsMRla2-1" vertex="1">
          <mxGeometry x="10" y="90" width="120" height="30" as="geometry" />
        </mxCell>
        <mxCell id="xQ2R-rVzxNfiQMsMRla2-23" value="dish_type: DishType" style="text;html=1;align=left;verticalAlign=middle;resizable=0;points=[];autosize=1;strokeColor=none;fillColor=none;fontStyle=1;fontSize=15;" parent="xQ2R-rVzxNfiQMsMRla2-1" vertex="1">
          <mxGeometry x="10" y="120" width="160" height="30" as="geometry" />
        </mxCell>
        <mxCell id="xQ2R-rVzxNfiQMsMRla2-22" value="cooks: list(Cook)" style="text;html=1;align=left;verticalAlign=middle;resizable=0;points=[];autosize=1;strokeColor=none;fillColor=none;fontStyle=1;fontSize=15;" parent="xQ2R-rVzxNfiQMsMRla2-1" vertex="1">
          <mxGeometry x="10" y="150" width="130" height="30" as="geometry" />
        </mxCell>
        <mxCell id="xQ2R-rVzxNfiQMsMRla2-32" value="ingredients: list(Ingredient)" style="text;html=1;align=left;verticalAlign=middle;resizable=0;points=[];autosize=1;strokeColor=none;fillColor=none;fontStyle=1;fontSize=15;" parent="xQ2R-rVzxNfiQMsMRla2-1" vertex="1">
          <mxGeometry x="10" y="180" width="200" height="30" as="geometry" />
        </mxCell>
        <mxCell id="r4ZRTAvLfwD3mW4i5uAc-2" value="image: image" style="text;html=1;align=left;verticalAlign=middle;resizable=0;points=[];autosize=1;strokeColor=none;fillColor=none;fontStyle=1;fontSize=15;" parent="xQ2R-rVzxNfiQMsMRla2-1" vertex="1">
          <mxGeometry x="10" y="210" width="110" height="30" as="geometry" />
        </mxCell>
        <mxCell id="r4ZRTAvLfwD3mW4i5uAc-3" value="created_at: datetime" style="text;html=1;align=left;verticalAlign=middle;resizable=0;points=[];autosize=1;strokeColor=none;fillColor=none;fontStyle=1;fontSize=15;" parent="xQ2R-rVzxNfiQMsMRla2-1" vertex="1">
          <mxGeometry x="10" y="240" width="160" height="30" as="geometry" />
        </mxCell>
        <mxCell id="r4ZRTAvLfwD3mW4i5uAc-4" value="updated_at: datetime" style="text;html=1;align=left;verticalAlign=middle;resizable=0;points=[];autosize=1;strokeColor=none;fillColor=none;fontStyle=1;fontSize=15;" parent="xQ2R-rVzxNfiQMsMRla2-1" vertex="1">
          <mxGeometry x="10" y="270" width="160" height="30" as="geometry" />
        </mxCell>
        <mxCell id="xQ2R-rVzxNfiQMsMRla2-2" value="&lt;font style=&quot;font-size: 16px;&quot;&gt;Cook (AbstractUser)&lt;/font&gt;" style="swimlane;whiteSpace=wrap;html=1;startSize=23;" parent="WIyWlLk6GJQsqaUBKTNV-1" vertex="1">
          <mxGeometry x="160" y="270" width="200" height="300" as="geometry">
            <mxRectangle x="370" y="100" width="140" height="30" as="alternateBounds" />
          </mxGeometry>
        </mxCell>
        <mxCell id="xQ2R-rVzxNfiQMsMRla2-16" value="years_ of_experience: int" style="text;html=1;align=left;verticalAlign=middle;resizable=0;points=[];autosize=1;strokeColor=none;fillColor=none;fontStyle=1;fontSize=15;" parent="xQ2R-rVzxNfiQMsMRla2-2" vertex="1">
          <mxGeometry x="5" y="60" width="190" height="30" as="geometry" />
        </mxCell>
        <mxCell id="xQ2R-rVzxNfiQMsMRla2-18" value="first_name: str" style="text;html=1;align=left;verticalAlign=middle;resizable=0;points=[];autosize=1;strokeColor=none;fillColor=none;fontStyle=1;fontSize=15;" parent="xQ2R-rVzxNfiQMsMRla2-2" vertex="1">
          <mxGeometry x="10" y="180" width="120" height="30" as="geometry" />
        </mxCell>
        <mxCell id="xQ2R-rVzxNfiQMsMRla2-19" value="last_name: str" style="text;html=1;align=left;verticalAlign=middle;resizable=0;points=[];autosize=1;strokeColor=none;fillColor=none;fontStyle=1;fontSize=15;" parent="xQ2R-rVzxNfiQMsMRla2-2" vertex="1">
          <mxGeometry x="10" y="210" width="120" height="30" as="geometry" />
        </mxCell>
        <mxCell id="r4ZRTAvLfwD3mW4i5uAc-6" value="profile_picture: image" style="text;html=1;align=left;verticalAlign=middle;resizable=0;points=[];autosize=1;strokeColor=none;fillColor=none;fontStyle=1;fontSize=15;" parent="xQ2R-rVzxNfiQMsMRla2-2" vertex="1">
          <mxGeometry x="10" y="90" width="170" height="30" as="geometry" />
        </mxCell>
        <mxCell id="r4ZRTAvLfwD3mW4i5uAc-7" value="bio: text" style="text;html=1;align=left;verticalAlign=middle;resizable=0;points=[];autosize=1;strokeColor=none;fillColor=none;fontStyle=1;fontSize=15;" parent="xQ2R-rVzxNfiQMsMRla2-2" vertex="1">
          <mxGeometry x="10" y="30" width="80" height="30" as="geometry" />
        </mxCell>
        <mxCell id="ga8ESJMkoXXcjlAqfhyh-3" value="slug: slug" style="text;html=1;align=left;verticalAlign=middle;resizable=0;points=[];autosize=1;strokeColor=none;fillColor=none;fontStyle=1;fontSize=15;" vertex="1" parent="xQ2R-rVzxNfiQMsMRla2-2">
          <mxGeometry x="10" y="120" width="90" height="30" as="geometry" />
        </mxCell>
        <mxCell id="xQ2R-rVzxNfiQMsMRla2-17" value="username: str" style="text;html=1;align=left;verticalAlign=middle;resizable=0;points=[];autosize=1;strokeColor=none;fillColor=none;fontStyle=1;fontSize=15;" parent="xQ2R-rVzxNfiQMsMRla2-2" vertex="1">
          <mxGeometry x="10" y="150" width="120" height="30" as="geometry" />
        </mxCell>
        <mxCell id="xQ2R-rVzxNfiQMsMRla2-20" value="email: str" style="text;html=1;align=left;verticalAlign=middle;resizable=0;points=[];autosize=1;strokeColor=none;fillColor=none;fontStyle=1;fontSize=15;" parent="xQ2R-rVzxNfiQMsMRla2-2" vertex="1">
          <mxGeometry x="10" y="240" width="80" height="30" as="geometry" />
        </mxCell>
        <mxCell id="xQ2R-rVzxNfiQMsMRla2-21" value="password: str" style="text;html=1;align=left;verticalAlign=middle;resizable=0;points=[];autosize=1;strokeColor=none;fillColor=none;fontStyle=1;fontSize=15;" parent="xQ2R-rVzxNfiQMsMRla2-2" vertex="1">
          <mxGeometry x="10" y="270" width="110" height="30" as="geometry" />
        </mxCell>
        <mxCell id="xQ2R-rVzxNfiQMsMRla2-3" value="&lt;font style=&quot;font-size: 16px;&quot;&gt;DishType&lt;/font&gt;" style="swimlane;whiteSpace=wrap;html=1;" parent="WIyWlLk6GJQsqaUBKTNV-1" vertex="1">
          <mxGeometry x="160" y="81" width="200" height="109" as="geometry">
            <mxRectangle x="160" y="80" width="140" height="30" as="alternateBounds" />
          </mxGeometry>
        </mxCell>
        <mxCell id="xQ2R-rVzxNfiQMsMRla2-15" value="name: str" style="text;html=1;align=left;verticalAlign=middle;resizable=0;points=[];autosize=1;strokeColor=none;fillColor=none;fontStyle=1;fontSize=15;" parent="xQ2R-rVzxNfiQMsMRla2-3" vertex="1">
          <mxGeometry x="10" y="29.5" width="90" height="30" as="geometry" />
        </mxCell>
        <mxCell id="ga8ESJMkoXXcjlAqfhyh-0" value="description: text" style="text;html=1;align=left;verticalAlign=middle;resizable=0;points=[];autosize=1;strokeColor=none;fillColor=none;fontStyle=1;fontSize=15;" vertex="1" parent="xQ2R-rVzxNfiQMsMRla2-3">
          <mxGeometry x="10" y="59.5" width="130" height="30" as="geometry" />
        </mxCell>
        <mxCell id="xQ2R-rVzxNfiQMsMRla2-27" value="&lt;font style=&quot;font-size: 16px;&quot;&gt;Ingredient&lt;/font&gt;" style="swimlane;whiteSpace=wrap;html=1;" parent="WIyWlLk6GJQsqaUBKTNV-1" vertex="1">
          <mxGeometry x="580" y="510" width="200" height="110" as="geometry">
            <mxRectangle x="370" y="100" width="140" height="30" as="alternateBounds" />
          </mxGeometry>
        </mxCell>
        <mxCell id="xQ2R-rVzxNfiQMsMRla2-28" value="name: str" style="text;html=1;align=left;verticalAlign=middle;resizable=0;points=[];autosize=1;strokeColor=none;fillColor=none;fontStyle=1;fontSize=15;" parent="xQ2R-rVzxNfiQMsMRla2-27" vertex="1">
          <mxGeometry x="10" y="30.5" width="90" height="30" as="geometry" />
        </mxCell>
        <mxCell id="xQ2R-rVzxNfiQMsMRla2-29" value="description: text" style="text;html=1;align=left;verticalAlign=middle;resizable=0;points=[];autosize=1;strokeColor=none;fillColor=none;fontStyle=1;fontSize=15;" parent="xQ2R-rVzxNfiQMsMRla2-27" vertex="1">
          <mxGeometry x="10" y="60" width="130" height="30" as="geometry" />
        </mxCell>
        <mxCell id="ga8ESJMkoXXcjlAqfhyh-11" style="edgeStyle=orthogonalEdgeStyle;rounded=0;orthogonalLoop=1;jettySize=auto;html=1;startArrow=ERmany;startFill=0;endArrow=ERmany;endFill=0;" edge="1" parent="WIyWlLk6GJQsqaUBKTNV-1">
          <mxGeometry relative="1" as="geometry">
            <mxPoint x="580" y="284" as="sourcePoint" />
            <mxPoint x="360" y="360" as="targetPoint" />
            <Array as="points">
              <mxPoint x="440" y="284" />
              <mxPoint x="440" y="360" />
              <mxPoint x="360" y="360" />
            </Array>
          </mxGeometry>
        </mxCell>
        <mxCell id="ga8ESJMkoXXcjlAqfhyh-18" style="edgeStyle=orthogonalEdgeStyle;rounded=0;orthogonalLoop=1;jettySize=auto;html=1;exitX=0.5;exitY=0;exitDx=0;exitDy=0;startArrow=ERmany;startFill=0;endArrow=ERmany;endFill=0;" edge="1" parent="WIyWlLk6GJQsqaUBKTNV-1">
          <mxGeometry relative="1" as="geometry">
            <mxPoint x="679.5" y="510" as="sourcePoint" />
            <mxPoint x="679.5" y="379" as="targetPoint" />
            <Array as="points">
              <mxPoint x="679.5" y="379" />
            </Array>
          </mxGeometry>
        </mxCell>
      </root>
    </mxGraphModel>
  </diagram>
</mxfile>
